# xmcd CD database file
#
# Track frame offsets:
#	150
#	15482
#	28650
#	41779
#	51899
#	66193
#	79636
#	92057
#	103068
#	116619
#
# Disc length: 1729 seconds
#
# Revision: 1
# Processed by: cddbd v1.5.2PL0 Copyright (c) Steve Scherf et al.
# Submitted via: CDex 1.70beta2
#
DISCID=7c06bf0a
DTITLE=Solomon Burke - Proud Mary
DYEAR=1969
DGENRE=Blues
TTITLE0=Proud Mary
TTITLE1=These arms of mine
TTITLE2=I'll be doggone
TTITLE3=How big a fool (can a fool be)
TTITLE4=Don't wait too long
TTITLE5=That lucky old sun
TTITLE6=Uptight good woman
TTITLE7=I can't stop
TTITLE8=Please send me someone to love
TTITLE9=What am I living for
EXTD=YEAR: 1969
EXTT0=
EXTT1=
EXTT2=
EXTT3=
EXTT4=
EXTT5=
EXTT6=
EXTT7=
EXTT8=
EXTT9=
PLAYORDER=
